<svg viewBox="0 0 24 24" fill="currentColor" xmlns="http://www.w3.org/2000/svg">
  <path d="M8.5 9.5c0 .6-.4 1-1 1s-1-.4-1-1 .4-1 1-1 1 .4 1 1zm5 0c0 .6-.4 1-1 1s-1-.4-1-1 .4-1 1-1 1 .4 1 1zm4.5 5.5c0-.6.4-1 1-1s1 .4 1 1-.4 1-1 1-1-.4-1-1zm-3 0c0-.6.4-1 1-1s1 .4 1 1-.4 1-1 1-1-.4-1-1zM9.5 4C5.4 4 2 6.7 2 10c0 1.9 1 3.6 2.6 4.8l-.6 2.2c-.1.3.2.6.5.5l2.5-1.3c.7.2 1.4.3 2.1.3.3 0 .6 0 .9-.1-.2-.6-.3-1.2-.3-1.9 0-3.5 3.1-6.4 7-6.4.3 0 .6 0 .9.1C16.8 5.6 13.5 4 9.5 4zm12.3 9.5c0-2.8-2.8-5-6.3-5s-6.3 2.2-6.3 5 2.8 5 6.3 5c.6 0 1.2-.1 1.8-.2l2.1 1.1c.3.1.6-.2.5-.5l-.5-1.9c1.4-1 2.4-2.5 2.4-4.5z"/>
</svg>
